<svg xmlns="http://www.w3.org/2000/svg" xmlns:xlink="http://www.w3.org/1999/xlink" width="120" zoomAndPan="magnify" viewBox="0 0 90 30.000001" height="40" preserveAspectRatio="xMidYMid meet" version="1.0"><defs><clipPath id="0f167e240d"><path d="M 4.113281 7 L 25.707031 7 L 25.707031 22 L 4.113281 22 Z M 4.113281 7 " clip-rule="nonzero"/></clipPath><clipPath id="40565ce7b9"><path d="M -0.585938 -0.332031 L 29.277344 -1.386719 L 30.324219 28.722656 L 0.460938 29.777344 Z M -0.585938 -0.332031 " clip-rule="nonzero"/></clipPath><clipPath id="9c5cc88e53"><path d="M -0.585938 -0.332031 L 29.277344 -1.386719 L 30.324219 28.722656 L 0.460938 29.777344 Z M -0.585938 -0.332031 " clip-rule="nonzero"/></clipPath></defs><g clip-path="url(#0f167e240d)"><g clip-path="url(#40565ce7b9)"><g clip-path="url(#9c5cc88e53)"><path fill="#4f9df3" d="M 15.6875 19.296875 C 15.117188 19.257812 14.558594 19.21875 14 19.183594 C 13.339844 19.128906 12.675781 19.078125 12.011719 19.019531 C 11.914062 19.011719 11.8125 19.039062 11.691406 18.984375 C 11.816406 18.917969 11.929688 18.925781 12.03125 18.914062 C 12.691406 18.824219 13.351562 18.742188 14.015625 18.65625 C 14.59375 18.582031 15.175781 18.5 15.757812 18.421875 C 15.949219 18.394531 16.070312 18.289062 16.066406 18.175781 C 16.066406 18.050781 15.902344 17.925781 15.726562 17.914062 C 15.164062 17.882812 14.601562 17.855469 14.039062 17.820312 C 13.480469 17.789062 12.921875 17.746094 12.363281 17.710938 C 11.890625 17.683594 11.414062 17.664062 10.941406 17.636719 C 10.410156 17.609375 9.878906 17.570312 9.355469 17.539062 C 9.3125 17.53125 9.269531 17.519531 9.195312 17.503906 C 9.382812 17.429688 9.558594 17.429688 9.722656 17.40625 C 10.109375 17.351562 10.5 17.3125 10.894531 17.261719 C 11.324219 17.210938 11.761719 17.160156 12.191406 17.113281 C 12.496094 17.074219 12.800781 17.046875 13.105469 17.007812 C 13.550781 16.960938 13.992188 16.90625 14.4375 16.851562 C 14.703125 16.820312 14.964844 16.789062 15.234375 16.757812 C 15.273438 16.753906 15.316406 16.742188 15.359375 16.730469 C 15.53125 16.664062 15.5625 16.515625 15.433594 16.382812 C 15.351562 16.292969 15.242188 16.261719 15.128906 16.257812 C 14.769531 16.234375 14.402344 16.21875 14.039062 16.199219 C 13.445312 16.175781 12.855469 16.148438 12.261719 16.121094 C 11.824219 16.105469 11.390625 16.089844 10.949219 16.074219 C 10.457031 16.054688 9.960938 16.035156 9.464844 16.015625 C 9.023438 15.996094 8.582031 15.988281 8.140625 15.96875 C 7.898438 15.960938 7.65625 15.941406 7.402344 15.925781 C 7.425781 15.855469 7.46875 15.859375 7.503906 15.855469 C 8.042969 15.804688 8.578125 15.757812 9.117188 15.703125 C 9.804688 15.644531 10.488281 15.582031 11.179688 15.523438 C 11.65625 15.480469 12.140625 15.445312 12.617188 15.40625 C 13.386719 15.339844 14.148438 15.273438 14.914062 15.203125 C 15.027344 15.195312 15.144531 15.164062 15.144531 15.007812 C 15.144531 14.894531 15.039062 14.820312 14.890625 14.816406 C 14.449219 14.8125 14.003906 14.8125 13.5625 14.800781 C 12.867188 14.792969 12.164062 14.777344 11.464844 14.765625 C 11.011719 14.757812 10.558594 14.753906 10.105469 14.75 C 9.378906 14.734375 8.648438 14.722656 7.917969 14.710938 C 7.507812 14.703125 7.101562 14.703125 6.695312 14.691406 C 6 14.675781 5.300781 14.675781 4.613281 14.617188 C 4.59375 14.617188 4.574219 14.613281 4.550781 14.609375 C 4.566406 14.546875 4.613281 14.542969 4.652344 14.542969 C 5.035156 14.503906 5.417969 14.464844 5.796875 14.4375 C 6.542969 14.382812 7.285156 14.324219 8.023438 14.273438 C 8.882812 14.214844 9.734375 14.171875 10.59375 14.117188 C 11.328125 14.070312 12.066406 14.011719 12.804688 13.957031 C 13.488281 13.902344 14.171875 13.847656 14.851562 13.789062 C 14.894531 13.789062 14.933594 13.78125 14.964844 13.765625 C 15.039062 13.742188 15.09375 13.695312 15.097656 13.605469 C 15.101562 13.511719 15.046875 13.464844 14.96875 13.429688 C 14.882812 13.390625 14.777344 13.390625 14.683594 13.382812 C 14.183594 13.363281 13.6875 13.355469 13.183594 13.339844 C 12.636719 13.328125 12.089844 13.304688 11.535156 13.289062 C 11.183594 13.273438 10.828125 13.269531 10.472656 13.261719 C 9.875 13.246094 9.277344 13.222656 8.679688 13.214844 C 8.257812 13.203125 7.832031 13.191406 7.410156 13.160156 C 7.378906 13.160156 7.335938 13.175781 7.308594 13.136719 C 7.320312 13.089844 7.363281 13.089844 7.402344 13.085938 C 7.859375 13.039062 8.320312 12.992188 8.78125 12.945312 C 9.445312 12.878906 10.109375 12.804688 10.78125 12.738281 C 11.152344 12.699219 11.527344 12.664062 11.894531 12.628906 C 12.445312 12.574219 12.988281 12.515625 13.535156 12.460938 C 13.875 12.425781 14.210938 12.394531 14.546875 12.359375 C 14.707031 12.34375 14.867188 12.324219 15.027344 12.300781 C 15.070312 12.296875 15.109375 12.273438 15.148438 12.253906 C 15.269531 12.191406 15.378906 12.109375 15.351562 11.960938 C 15.320312 11.820312 15.195312 11.777344 15.058594 11.773438 C 14.511719 11.738281 13.960938 11.710938 13.414062 11.683594 C 12.777344 11.648438 12.144531 11.613281 11.507812 11.578125 C 11.003906 11.554688 10.5 11.53125 9.992188 11.507812 C 9.679688 11.492188 9.363281 11.46875 9.050781 11.453125 C 9.027344 11.445312 9.007812 11.441406 9.003906 11.402344 C 9.070312 11.347656 9.164062 11.355469 9.238281 11.347656 C 9.722656 11.28125 10.203125 11.230469 10.683594 11.167969 C 11.1875 11.105469 11.695312 11.039062 12.199219 10.980469 C 12.597656 10.925781 12.992188 10.882812 13.386719 10.835938 C 13.789062 10.789062 14.1875 10.738281 14.585938 10.6875 C 14.839844 10.65625 15.085938 10.625 15.339844 10.589844 C 15.476562 10.574219 15.609375 10.535156 15.714844 10.445312 C 15.859375 10.320312 15.824219 10.128906 15.640625 10.0625 C 15.484375 10.011719 15.316406 10.015625 15.152344 10.003906 C 14.300781 9.9375 13.445312 9.886719 12.59375 9.832031 C 12.21875 9.800781 11.847656 9.773438 11.472656 9.75 C 11.449219 9.746094 11.425781 9.753906 11.398438 9.71875 C 11.621094 9.660156 11.839844 9.652344 12.054688 9.617188 C 12.640625 9.539062 13.230469 9.460938 13.816406 9.386719 C 14.304688 9.324219 14.792969 9.273438 15.28125 9.207031 C 15.65625 9.160156 16.03125 9.132812 16.40625 9.054688 C 16.453125 9.046875 16.5 9.027344 16.539062 9.003906 C 16.59375 8.976562 16.628906 8.921875 16.621094 8.855469 C 16.617188 8.800781 16.570312 8.765625 16.515625 8.75 C 16.453125 8.714844 16.386719 8.71875 16.316406 8.71875 C 15.6875 8.753906 15.054688 8.785156 14.421875 8.820312 C 14.367188 8.820312 14.304688 8.832031 14.25 8.808594 C 14.234375 8.773438 14.265625 8.753906 14.285156 8.738281 C 15.195312 7.941406 16.234375 7.414062 17.417969 7.183594 C 19.511719 6.777344 21.414062 7.238281 23.078125 8.570312 C 24.289062 9.539062 25.0625 10.804688 25.425781 12.320312 C 25.585938 12.96875 25.652344 13.625 25.632812 14.285156 C 25.582031 15.871094 25.085938 17.296875 24.113281 18.542969 C 23.210938 19.707031 22.070312 20.519531 20.65625 20.929688 C 19.996094 21.125 19.320312 21.21875 18.640625 21.195312 C 17.195312 21.144531 15.882812 20.6875 14.703125 19.847656 C 14.683594 19.835938 14.671875 19.816406 14.65625 19.796875 C 14.695312 19.734375 14.753906 19.753906 14.800781 19.753906 C 15.433594 19.730469 16.066406 19.714844 16.699219 19.691406 C 16.816406 19.691406 16.960938 19.710938 16.976562 19.550781 C 16.992188 19.375 16.832031 19.371094 16.714844 19.363281 C 16.375 19.332031 16.039062 19.320312 15.6875 19.296875 Z M 15.6875 19.296875 " fill-opacity="1" fill-rule="nonzero"/></g></g></g><path fill="#09090b" d="M 32.015625 8.898438 L 32.148438 12.625 L 34.695312 12.527344 L 34.566406 8.804688 L 36.175781 8.75 L 36.496094 18.066406 L 34.882812 18.125 L 34.734375 14.023438 L 32.183594 14.117188 L 32.335938 18.21875 L 30.703125 18.273438 L 30.382812 8.957031 Z M 32.015625 8.898438 " fill-opacity="1" fill-rule="nonzero"/><path fill="#09090b" d="M 38.027344 16.039062 C 38.011719 15.675781 38.0625 15.351562 38.175781 15.074219 C 38.296875 14.785156 38.480469 14.539062 38.71875 14.335938 C 38.953125 14.125 39.234375 13.960938 39.5625 13.847656 C 39.902344 13.722656 40.28125 13.652344 40.707031 13.636719 L 42.46875 13.5625 L 42.449219 12.957031 C 42.4375 12.632812 42.304688 12.382812 42.058594 12.203125 C 41.804688 12.011719 41.464844 11.925781 41.042969 11.9375 C 40.691406 11.949219 40.398438 12.027344 40.164062 12.164062 C 39.925781 12.304688 39.773438 12.484375 39.714844 12.710938 L 38.140625 12.769531 C 38.222656 12.140625 38.523438 11.632812 39.039062 11.257812 C 39.550781 10.878906 40.207031 10.679688 41.007812 10.652344 C 41.457031 10.640625 41.859375 10.683594 42.226562 10.785156 C 42.601562 10.886719 42.917969 11.03125 43.179688 11.21875 C 43.445312 11.40625 43.648438 11.648438 43.800781 11.9375 C 43.960938 12.214844 44.046875 12.53125 44.0625 12.882812 L 44.230469 17.796875 L 42.714844 17.851562 L 42.65625 16.453125 L 42.542969 16.453125 C 42.492188 16.9375 42.269531 17.320312 41.871094 17.605469 C 41.480469 17.898438 40.992188 18.046875 40.40625 18.0625 C 39.695312 18.085938 39.121094 17.917969 38.699219 17.550781 C 38.273438 17.1875 38.050781 16.679688 38.027344 16.039062 Z M 40.914062 16.777344 C 41.402344 16.765625 41.792969 16.632812 42.09375 16.378906 C 42.402344 16.128906 42.554688 15.820312 42.542969 15.453125 L 42.507812 14.621094 L 40.746094 14.695312 C 40.378906 14.710938 40.097656 14.808594 39.902344 15 C 39.714844 15.1875 39.625 15.449219 39.636719 15.773438 C 39.648438 16.105469 39.761719 16.359375 39.976562 16.546875 C 40.199219 16.726562 40.511719 16.804688 40.914062 16.777344 Z M 40.914062 16.777344 " fill-opacity="1" fill-rule="nonzero"/><path fill="#09090b" d="M 45.78125 13.292969 C 45.765625 12.851562 45.808594 12.460938 45.910156 12.121094 C 46.011719 11.769531 46.160156 11.472656 46.363281 11.230469 C 46.574219 10.980469 46.820312 10.785156 47.109375 10.644531 C 47.410156 10.492188 47.738281 10.414062 48.105469 10.398438 C 48.617188 10.390625 49.042969 10.503906 49.378906 10.738281 C 49.726562 10.964844 49.945312 11.289062 50.035156 11.703125 L 50.167969 11.683594 C 50.152344 11.546875 50.132812 11.402344 50.109375 11.25 C 50.097656 11.128906 50.082031 10.996094 50.074219 10.851562 C 50.058594 10.703125 50.054688 10.570312 50.054688 10.457031 L 49.980469 8.132812 L 51.589844 8.074219 L 51.910156 17.523438 L 50.375 17.582031 L 50.335938 16.335938 L 50.203125 16.351562 C 50.140625 16.785156 49.941406 17.128906 49.605469 17.394531 C 49.277344 17.648438 48.859375 17.777344 48.347656 17.789062 C 47.984375 17.800781 47.65625 17.753906 47.355469 17.636719 C 47.0625 17.515625 46.800781 17.332031 46.566406 17.089844 C 46.34375 16.855469 46.164062 16.5625 46.042969 16.222656 C 45.917969 15.878906 45.847656 15.496094 45.835938 15.066406 Z M 48.890625 16.351562 C 49.3125 16.34375 49.640625 16.203125 49.867188 15.9375 C 50.101562 15.664062 50.214844 15.3125 50.203125 14.898438 L 50.148438 13.160156 C 50.132812 12.71875 50 12.378906 49.734375 12.136719 C 49.472656 11.886719 49.136719 11.769531 48.722656 11.777344 C 48.28125 11.792969 47.945312 11.941406 47.710938 12.214844 C 47.472656 12.480469 47.359375 12.832031 47.375 13.273438 L 47.429688 14.953125 C 47.4375 15.398438 47.578125 15.742188 47.84375 15.996094 C 48.105469 16.25 48.453125 16.367188 48.890625 16.351562 Z M 48.890625 16.351562 " fill-opacity="1" fill-rule="nonzero"/><path fill="#09090b" d="M 55.128906 14.742188 C 55.136719 15.171875 55.28125 15.503906 55.558594 15.742188 C 55.832031 15.984375 56.195312 16.097656 56.644531 16.082031 C 57.105469 16.074219 57.460938 15.929688 57.714844 15.667969 C 57.964844 15.402344 58.082031 15.058594 58.070312 14.625 L 58.015625 12.867188 C 58 12.445312 57.855469 12.109375 57.582031 11.867188 C 57.308594 11.632812 56.9375 11.519531 56.476562 11.527344 C 56.035156 11.542969 55.691406 11.679688 55.425781 11.941406 C 55.175781 12.207031 55.058594 12.558594 55.070312 12.984375 Z M 53.476562 13.039062 C 53.464844 12.613281 53.519531 12.226562 53.648438 11.886719 C 53.78125 11.535156 53.976562 11.234375 54.226562 10.980469 C 54.492188 10.714844 54.808594 10.507812 55.183594 10.355469 C 55.566406 10.203125 55.988281 10.125 56.441406 10.109375 C 56.898438 10.101562 57.320312 10.15625 57.695312 10.28125 C 58.082031 10.394531 58.414062 10.574219 58.691406 10.808594 C 58.976562 11.050781 59.195312 11.339844 59.347656 11.679688 C 59.503906 12.007812 59.59375 12.386719 59.609375 12.8125 L 59.664062 14.570312 C 59.671875 14.984375 59.613281 15.378906 59.476562 15.742188 C 59.351562 16.097656 59.160156 16.398438 58.894531 16.648438 C 58.644531 16.90625 58.324219 17.101562 57.941406 17.253906 C 57.566406 17.40625 57.144531 17.492188 56.683594 17.5 C 56.234375 17.507812 55.8125 17.457031 55.425781 17.328125 C 55.039062 17.207031 54.707031 17.027344 54.433594 16.800781 C 54.15625 16.5625 53.9375 16.269531 53.777344 15.929688 C 53.628906 15.589844 53.542969 15.210938 53.535156 14.796875 Z M 53.476562 13.039062 " fill-opacity="1" fill-rule="nonzero"/><path fill="#09090b" d="M 64.382812 17.230469 C 63.929688 17.238281 63.511719 17.199219 63.125 17.097656 C 62.75 16.984375 62.417969 16.824219 62.132812 16.605469 C 61.839844 16.378906 61.617188 16.113281 61.457031 15.8125 C 61.292969 15.5 61.195312 15.140625 61.15625 14.734375 L 62.789062 14.675781 C 62.824219 15.054688 62.984375 15.347656 63.277344 15.546875 C 63.5625 15.734375 63.9375 15.824219 64.398438 15.8125 C 64.859375 15.789062 65.214844 15.667969 65.46875 15.453125 C 65.71875 15.226562 65.835938 14.933594 65.824219 14.5625 C 65.824219 14.25 65.71875 13.976562 65.507812 13.75 C 65.304688 13.523438 65.023438 13.363281 64.664062 13.257812 L 63.667969 13.015625 C 62.058594 12.625 61.222656 11.722656 61.175781 10.3125 C 61.160156 9.921875 61.21875 9.570312 61.34375 9.253906 C 61.480469 8.941406 61.671875 8.660156 61.925781 8.421875 C 62.175781 8.171875 62.480469 7.980469 62.84375 7.855469 C 63.21875 7.71875 63.636719 7.640625 64.101562 7.628906 C 64.972656 7.589844 65.679688 7.792969 66.21875 8.230469 C 66.765625 8.660156 67.082031 9.269531 67.15625 10.066406 L 65.523438 10.121094 C 65.488281 9.773438 65.335938 9.507812 65.074219 9.328125 C 64.8125 9.140625 64.484375 9.054688 64.101562 9.0625 C 63.675781 9.078125 63.339844 9.1875 63.105469 9.386719 C 62.882812 9.589844 62.773438 9.851562 62.789062 10.179688 C 62.8125 10.796875 63.191406 11.207031 63.929688 11.40625 L 64.980469 11.652344 C 65.769531 11.84375 66.367188 12.175781 66.78125 12.65625 C 67.195312 13.121094 67.410156 13.714844 67.4375 14.429688 C 67.445312 14.835938 67.386719 15.207031 67.25 15.546875 C 67.109375 15.878906 66.914062 16.160156 66.648438 16.398438 C 66.398438 16.636719 66.078125 16.832031 65.695312 16.984375 C 65.304688 17.125 64.867188 17.207031 64.382812 17.230469 Z M 64.382812 17.230469 " fill-opacity="1" fill-rule="nonzero"/><path fill="#09090b" d="M 69.34375 16.921875 L 69.023438 7.601562 L 74.703125 7.394531 L 74.742188 8.8125 L 70.671875 8.960938 L 70.765625 11.363281 L 74.386719 11.230469 L 74.421875 12.648438 L 70.804688 12.78125 L 70.898438 15.445312 L 74.964844 15.292969 L 75.023438 16.710938 Z M 69.34375 16.921875 " fill-opacity="1" fill-rule="nonzero"/><path fill="#09090b" d="M 78.222656 13.871094 C 78.230469 14.316406 78.375 14.660156 78.652344 14.910156 C 78.9375 15.164062 79.300781 15.285156 79.738281 15.269531 C 80.191406 15.257812 80.535156 15.113281 80.789062 14.835938 C 81.050781 14.558594 81.171875 14.203125 81.164062 13.757812 L 81.03125 9.902344 C 81.019531 9.460938 80.867188 9.121094 80.582031 8.878906 C 80.308594 8.628906 79.945312 8.511719 79.496094 8.519531 C 79.054688 8.535156 78.707031 8.683594 78.445312 8.957031 C 78.191406 9.222656 78.074219 9.574219 78.089844 10.015625 Z M 76.496094 10.070312 C 76.480469 9.632812 76.539062 9.234375 76.664062 8.878906 C 76.800781 8.53125 76.992188 8.21875 77.246094 7.953125 C 77.507812 7.691406 77.828125 7.492188 78.203125 7.347656 C 78.585938 7.199219 79.007812 7.117188 79.457031 7.105469 C 79.917969 7.09375 80.339844 7.140625 80.714844 7.253906 C 81.097656 7.367188 81.429688 7.554688 81.707031 7.804688 C 81.992188 8.042969 82.214844 8.332031 82.363281 8.671875 C 82.523438 9.011719 82.613281 9.40625 82.625 9.84375 L 82.757812 13.699219 C 82.765625 14.128906 82.707031 14.527344 82.570312 14.890625 C 82.445312 15.246094 82.25 15.550781 81.988281 15.816406 C 81.726562 16.074219 81.40625 16.28125 81.03125 16.441406 C 80.65625 16.59375 80.238281 16.675781 79.777344 16.6875 C 79.328125 16.695312 78.90625 16.648438 78.519531 16.535156 C 78.144531 16.414062 77.8125 16.226562 77.527344 15.988281 C 77.25 15.75 77.03125 15.457031 76.871094 15.117188 C 76.722656 14.769531 76.636719 14.371094 76.628906 13.925781 Z M 76.496094 10.070312 " fill-opacity="1" fill-rule="nonzero"/></svg>