<svg xmlns="http://www.w3.org/2000/svg" xmlns:xlink="http://www.w3.org/1999/xlink" width="150" zoomAndPan="magnify" viewBox="0 0 150 60" height="60" preserveAspectRatio="xMidYMid meet" version="1.0"><defs><g/><clipPath id="13665d9fb6"><path d="M 1 3 L 19 3 L 19 16 L 1 16 Z M 1 3 " clip-rule="nonzero"/></clipPath><clipPath id="2f638d7d2e"><path d="M -2.914062 -2.675781 L 21.976562 -3.546875 L 22.847656 21.34375 L -2.042969 22.214844 Z M -2.914062 -2.675781 " clip-rule="nonzero"/></clipPath><clipPath id="f42b340b84"><path d="M -2.914062 -2.675781 L 21.976562 -3.546875 L 22.847656 21.34375 L -2.042969 22.214844 Z M -2.914062 -2.675781 " clip-rule="nonzero"/></clipPath><clipPath id="1777915cdc"><rect x="0" width="68" y="0" height="17"/></clipPath></defs><g transform="matrix(2, 0, 0, 2, 0, 0)"><g clip-path="url(#1777915cdc)"><g clip-path="url(#13665d9fb6)"><g clip-path="url(#2f638d7d2e)"><g clip-path="url(#f42b340b84)"><path fill="#4f9df3" d="M 10.648438 13.550781 C 10.171875 13.519531 9.707031 13.488281 9.242188 13.457031 C 8.691406 13.414062 8.136719 13.371094 7.585938 13.324219 C 7.503906 13.316406 7.417969 13.339844 7.316406 13.292969 C 7.421875 13.238281 7.515625 13.246094 7.601562 13.234375 C 8.152344 13.160156 8.703125 13.09375 9.253906 13.023438 C 9.738281 12.960938 10.222656 12.894531 10.707031 12.828125 C 10.867188 12.804688 10.96875 12.71875 10.964844 12.625 C 10.964844 12.523438 10.828125 12.417969 10.679688 12.410156 C 10.210938 12.382812 9.742188 12.359375 9.273438 12.332031 C 8.808594 12.304688 8.34375 12.269531 7.878906 12.242188 C 7.484375 12.21875 7.085938 12.203125 6.691406 12.179688 C 6.25 12.15625 5.808594 12.125 5.371094 12.097656 C 5.335938 12.09375 5.300781 12.082031 5.238281 12.070312 C 5.394531 12.007812 5.539062 12.007812 5.675781 11.988281 C 6 11.945312 6.324219 11.910156 6.652344 11.871094 C 7.011719 11.828125 7.375 11.785156 7.734375 11.746094 C 7.988281 11.714844 8.242188 11.691406 8.496094 11.660156 C 8.867188 11.621094 9.234375 11.574219 9.605469 11.53125 C 9.828125 11.503906 10.046875 11.480469 10.269531 11.453125 C 10.304688 11.449219 10.339844 11.441406 10.375 11.429688 C 10.519531 11.375 10.542969 11.253906 10.4375 11.144531 C 10.367188 11.070312 10.277344 11.042969 10.183594 11.039062 C 9.882812 11.019531 9.578125 11.007812 9.273438 10.992188 C 8.78125 10.972656 8.289062 10.949219 7.792969 10.925781 C 7.429688 10.914062 7.066406 10.902344 6.699219 10.886719 C 6.289062 10.871094 5.875 10.855469 5.460938 10.839844 C 5.09375 10.824219 4.726562 10.816406 4.359375 10.800781 C 4.15625 10.792969 3.953125 10.777344 3.742188 10.765625 C 3.761719 10.707031 3.796875 10.710938 3.828125 10.707031 C 4.277344 10.664062 4.722656 10.625 5.171875 10.582031 C 5.746094 10.53125 6.316406 10.480469 6.890625 10.433594 C 7.289062 10.398438 7.691406 10.367188 8.089844 10.335938 C 8.730469 10.28125 9.367188 10.226562 10.003906 10.167969 C 10.097656 10.160156 10.195312 10.136719 10.195312 10.007812 C 10.195312 9.914062 10.109375 9.851562 9.984375 9.847656 C 9.617188 9.84375 9.246094 9.84375 8.878906 9.835938 C 8.296875 9.828125 7.710938 9.816406 7.128906 9.804688 C 6.75 9.800781 6.375 9.796875 5.996094 9.792969 C 5.390625 9.78125 4.78125 9.769531 4.171875 9.761719 C 3.832031 9.753906 3.492188 9.753906 3.152344 9.746094 C 2.574219 9.730469 1.992188 9.730469 1.417969 9.683594 C 1.402344 9.683594 1.386719 9.679688 1.367188 9.675781 C 1.378906 9.625 1.417969 9.621094 1.449219 9.621094 C 1.769531 9.589844 2.089844 9.558594 2.40625 9.535156 C 3.027344 9.488281 3.644531 9.441406 4.261719 9.398438 C 4.976562 9.351562 5.6875 9.316406 6.402344 9.269531 C 7.015625 9.230469 7.628906 9.183594 8.246094 9.136719 C 8.816406 9.09375 9.386719 9.046875 9.953125 9 C 9.988281 9 10.019531 8.992188 10.046875 8.980469 C 10.109375 8.960938 10.152344 8.921875 10.15625 8.847656 C 10.160156 8.769531 10.113281 8.730469 10.050781 8.703125 C 9.976562 8.667969 9.890625 8.667969 9.8125 8.664062 C 9.394531 8.648438 8.980469 8.640625 8.5625 8.628906 C 8.105469 8.617188 7.648438 8.597656 7.1875 8.585938 C 6.894531 8.574219 6.597656 8.570312 6.300781 8.5625 C 5.804688 8.550781 5.304688 8.53125 4.808594 8.523438 C 4.457031 8.515625 4.101562 8.503906 3.75 8.480469 C 3.722656 8.480469 3.6875 8.492188 3.664062 8.460938 C 3.675781 8.421875 3.710938 8.421875 3.742188 8.417969 C 4.125 8.378906 4.507812 8.339844 4.890625 8.300781 C 5.445312 8.246094 6 8.183594 6.558594 8.128906 C 6.867188 8.097656 7.179688 8.070312 7.488281 8.039062 C 7.945312 7.996094 8.398438 7.945312 8.855469 7.902344 C 9.136719 7.871094 9.417969 7.847656 9.699219 7.816406 C 9.832031 7.804688 9.964844 7.789062 10.097656 7.769531 C 10.132812 7.765625 10.167969 7.746094 10.199219 7.730469 C 10.300781 7.679688 10.390625 7.609375 10.367188 7.488281 C 10.34375 7.371094 10.238281 7.335938 10.125 7.332031 C 9.667969 7.304688 9.210938 7.28125 8.753906 7.257812 C 8.222656 7.230469 7.695312 7.199219 7.164062 7.171875 C 6.746094 7.152344 6.324219 7.132812 5.902344 7.113281 C 5.640625 7.101562 5.378906 7.082031 5.117188 7.066406 C 5.097656 7.0625 5.082031 7.058594 5.078125 7.027344 C 5.132812 6.980469 5.210938 6.988281 5.273438 6.980469 C 5.675781 6.925781 6.078125 6.882812 6.476562 6.832031 C 6.898438 6.78125 7.320312 6.726562 7.742188 6.675781 C 8.074219 6.632812 8.402344 6.597656 8.730469 6.558594 C 9.066406 6.519531 9.398438 6.476562 9.730469 6.433594 C 9.941406 6.410156 10.148438 6.382812 10.359375 6.355469 C 10.472656 6.339844 10.582031 6.308594 10.671875 6.234375 C 10.792969 6.132812 10.761719 5.972656 10.609375 5.917969 C 10.480469 5.875 10.339844 5.878906 10.203125 5.871094 C 9.492188 5.816406 8.78125 5.773438 8.070312 5.726562 C 7.757812 5.703125 7.449219 5.679688 7.136719 5.660156 C 7.117188 5.65625 7.097656 5.664062 7.074219 5.632812 C 7.257812 5.585938 7.441406 5.578125 7.621094 5.550781 C 8.109375 5.484375 8.601562 5.421875 9.089844 5.359375 C 9.496094 5.308594 9.902344 5.265625 10.308594 5.210938 C 10.621094 5.171875 10.933594 5.148438 11.246094 5.085938 C 11.285156 5.078125 11.324219 5.0625 11.359375 5.042969 C 11.402344 5.019531 11.433594 4.976562 11.425781 4.921875 C 11.421875 4.875 11.382812 4.847656 11.339844 4.832031 C 11.285156 4.804688 11.230469 4.808594 11.171875 4.808594 C 10.648438 4.835938 10.121094 4.863281 9.59375 4.890625 C 9.546875 4.890625 9.496094 4.902344 9.449219 4.882812 C 9.4375 4.851562 9.464844 4.835938 9.480469 4.824219 C 10.238281 4.164062 11.105469 3.730469 12.089844 3.539062 C 13.835938 3.203125 15.421875 3.582031 16.808594 4.683594 C 17.816406 5.484375 18.460938 6.53125 18.765625 7.785156 C 18.898438 8.320312 18.953125 8.863281 18.9375 9.410156 C 18.894531 10.71875 18.480469 11.898438 17.671875 12.929688 C 16.917969 13.890625 15.96875 14.5625 14.789062 14.902344 C 14.238281 15.0625 13.675781 15.140625 13.109375 15.121094 C 11.90625 15.078125 10.8125 14.703125 9.828125 14.007812 C 9.8125 13.996094 9.800781 13.980469 9.789062 13.964844 C 9.820312 13.914062 9.871094 13.929688 9.910156 13.929688 C 10.4375 13.910156 10.964844 13.898438 11.492188 13.878906 C 11.589844 13.878906 11.710938 13.894531 11.722656 13.761719 C 11.734375 13.617188 11.601562 13.613281 11.503906 13.605469 C 11.222656 13.582031 10.941406 13.570312 10.648438 13.550781 Z M 10.648438 13.550781 " fill-opacity="1" fill-rule="nonzero"/></g></g></g><g fill="#09090B" fill-opacity="1"><g transform="translate(22.367265, 12.73872)"><g><path d="M 1.890625 -7.78125 L 2 -4.703125 L 4.125 -4.78125 L 4.015625 -7.859375 L 5.359375 -7.90625 L 5.625 -0.203125 L 4.28125 -0.15625 L 4.15625 -3.546875 L 2.03125 -3.46875 L 2.15625 -0.078125 L 0.796875 -0.03125 L 0.53125 -7.734375 Z M 1.890625 -7.78125 "/></g></g></g><g fill="#09090B" fill-opacity="1"><g transform="translate(28.783297, 12.514667)"><g><path d="M 0.484375 -1.65625 C 0.472656 -1.957031 0.515625 -2.222656 0.609375 -2.453125 C 0.710938 -2.691406 0.863281 -2.894531 1.0625 -3.0625 C 1.257812 -3.238281 1.492188 -3.375 1.765625 -3.46875 C 2.046875 -3.570312 2.363281 -3.628906 2.71875 -3.640625 L 4.1875 -3.703125 L 4.171875 -4.203125 C 4.160156 -4.472656 4.050781 -4.679688 3.84375 -4.828125 C 3.632812 -4.984375 3.351562 -5.054688 3 -5.046875 C 2.707031 -5.035156 2.460938 -4.972656 2.265625 -4.859375 C 2.066406 -4.742188 1.941406 -4.59375 1.890625 -4.40625 L 0.578125 -4.359375 C 0.648438 -4.878906 0.898438 -5.296875 1.328125 -5.609375 C 1.753906 -5.921875 2.300781 -6.085938 2.96875 -6.109375 C 3.34375 -6.117188 3.679688 -6.082031 3.984375 -6 C 4.296875 -5.914062 4.5625 -5.796875 4.78125 -5.640625 C 5 -5.484375 5.171875 -5.285156 5.296875 -5.046875 C 5.429688 -4.816406 5.503906 -4.554688 5.515625 -4.265625 L 5.65625 -0.203125 L 4.390625 -0.15625 L 4.34375 -1.3125 L 4.25 -1.3125 C 4.207031 -0.914062 4.019531 -0.597656 3.6875 -0.359375 C 3.363281 -0.117188 2.957031 0.00390625 2.46875 0.015625 C 1.875 0.0351562 1.398438 -0.101562 1.046875 -0.40625 C 0.691406 -0.707031 0.503906 -1.125 0.484375 -1.65625 Z M 2.890625 -1.046875 C 3.296875 -1.054688 3.625 -1.164062 3.875 -1.375 C 4.132812 -1.582031 4.257812 -1.835938 4.25 -2.140625 L 4.21875 -2.828125 L 2.75 -2.765625 C 2.445312 -2.753906 2.210938 -2.671875 2.046875 -2.515625 C 1.890625 -2.359375 1.816406 -2.144531 1.828125 -1.875 C 1.835938 -1.601562 1.929688 -1.390625 2.109375 -1.234375 C 2.296875 -1.085938 2.554688 -1.023438 2.890625 -1.046875 Z M 2.890625 -1.046875 "/></g></g></g><g fill="#09090B" fill-opacity="1"><g transform="translate(35.199329, 12.290614)"><g><path d="M 0.53125 -3.703125 C 0.519531 -4.066406 0.554688 -4.390625 0.640625 -4.671875 C 0.722656 -4.960938 0.847656 -5.207031 1.015625 -5.40625 C 1.191406 -5.613281 1.398438 -5.773438 1.640625 -5.890625 C 1.890625 -6.015625 2.164062 -6.082031 2.46875 -6.09375 C 2.894531 -6.101562 3.25 -6.007812 3.53125 -5.8125 C 3.820312 -5.625 4.003906 -5.359375 4.078125 -5.015625 L 4.1875 -5.03125 C 4.175781 -5.144531 4.160156 -5.265625 4.140625 -5.390625 C 4.128906 -5.492188 4.117188 -5.601562 4.109375 -5.71875 C 4.097656 -5.84375 4.09375 -5.953125 4.09375 -6.046875 L 4.03125 -7.96875 L 5.375 -8.015625 L 5.640625 -0.203125 L 4.359375 -0.15625 L 4.328125 -1.1875 L 4.21875 -1.171875 C 4.164062 -0.816406 4 -0.53125 3.71875 -0.3125 C 3.445312 -0.101562 3.097656 0.00390625 2.671875 0.015625 C 2.367188 0.0234375 2.09375 -0.015625 1.84375 -0.109375 C 1.601562 -0.210938 1.382812 -0.363281 1.1875 -0.5625 C 1 -0.757812 0.851562 -1 0.75 -1.28125 C 0.644531 -1.5625 0.585938 -1.878906 0.578125 -2.234375 Z M 3.125 -1.171875 C 3.476562 -1.179688 3.75 -1.296875 3.9375 -1.515625 C 4.132812 -1.742188 4.226562 -2.03125 4.21875 -2.375 L 4.171875 -3.8125 C 4.160156 -4.175781 4.046875 -4.457031 3.828125 -4.65625 C 3.609375 -4.863281 3.328125 -4.960938 2.984375 -4.953125 C 2.617188 -4.941406 2.335938 -4.820312 2.140625 -4.59375 C 1.941406 -4.375 1.847656 -4.082031 1.859375 -3.71875 L 1.90625 -2.328125 C 1.914062 -1.960938 2.03125 -1.675781 2.25 -1.46875 C 2.46875 -1.257812 2.757812 -1.160156 3.125 -1.171875 Z M 3.125 -1.171875 "/></g></g></g><g fill="#09090B" fill-opacity="1"><g transform="translate(41.615362, 12.066561)"><g><path d="M 1.90625 -2.28125 C 1.914062 -1.925781 2.035156 -1.648438 2.265625 -1.453125 C 2.492188 -1.253906 2.796875 -1.160156 3.171875 -1.171875 C 3.554688 -1.179688 3.851562 -1.296875 4.0625 -1.515625 C 4.269531 -1.734375 4.367188 -2.019531 4.359375 -2.375 L 4.3125 -3.828125 C 4.300781 -4.179688 4.179688 -4.457031 3.953125 -4.65625 C 3.722656 -4.851562 3.414062 -4.945312 3.03125 -4.9375 C 2.664062 -4.925781 2.375 -4.8125 2.15625 -4.59375 C 1.945312 -4.375 1.847656 -4.085938 1.859375 -3.734375 Z M 0.53125 -3.6875 C 0.519531 -4.039062 0.566406 -4.359375 0.671875 -4.640625 C 0.785156 -4.929688 0.945312 -5.179688 1.15625 -5.390625 C 1.375 -5.609375 1.640625 -5.78125 1.953125 -5.90625 C 2.273438 -6.03125 2.625 -6.097656 3 -6.109375 C 3.382812 -6.117188 3.734375 -6.070312 4.046875 -5.96875 C 4.367188 -5.875 4.644531 -5.726562 4.875 -5.53125 C 5.113281 -5.332031 5.296875 -5.09375 5.421875 -4.8125 C 5.554688 -4.539062 5.628906 -4.226562 5.640625 -3.875 L 5.6875 -2.421875 C 5.695312 -2.078125 5.644531 -1.753906 5.53125 -1.453125 C 5.425781 -1.160156 5.265625 -0.910156 5.046875 -0.703125 C 4.835938 -0.492188 4.570312 -0.328125 4.25 -0.203125 C 3.9375 -0.078125 3.585938 -0.0078125 3.203125 0 C 2.828125 0.0078125 2.476562 -0.0351562 2.15625 -0.140625 C 1.832031 -0.242188 1.554688 -0.390625 1.328125 -0.578125 C 1.097656 -0.773438 0.914062 -1.015625 0.78125 -1.296875 C 0.65625 -1.578125 0.585938 -1.890625 0.578125 -2.234375 Z M 0.53125 -3.6875 "/></g></g></g><g fill="#09090B" fill-opacity="1"><g transform="translate(48.031394, 11.842509)"><g><path d="M 3.203125 0 C 2.828125 0.0078125 2.476562 -0.0234375 2.15625 -0.109375 C 1.84375 -0.203125 1.566406 -0.335938 1.328125 -0.515625 C 1.085938 -0.703125 0.898438 -0.921875 0.765625 -1.171875 C 0.628906 -1.429688 0.546875 -1.726562 0.515625 -2.0625 L 1.875 -2.109375 C 1.90625 -1.796875 2.039062 -1.554688 2.28125 -1.390625 C 2.519531 -1.234375 2.832031 -1.160156 3.21875 -1.171875 C 3.601562 -1.191406 3.898438 -1.289062 4.109375 -1.46875 C 4.316406 -1.65625 4.414062 -1.898438 4.40625 -2.203125 C 4.40625 -2.460938 4.316406 -2.6875 4.140625 -2.875 C 3.972656 -3.0625 3.738281 -3.195312 3.4375 -3.28125 L 2.609375 -3.484375 C 1.265625 -3.804688 0.570312 -4.550781 0.53125 -5.71875 C 0.519531 -6.039062 0.566406 -6.332031 0.671875 -6.59375 C 0.785156 -6.851562 0.945312 -7.082031 1.15625 -7.28125 C 1.363281 -7.488281 1.617188 -7.644531 1.921875 -7.75 C 2.234375 -7.863281 2.582031 -7.925781 2.96875 -7.9375 C 3.695312 -7.96875 4.285156 -7.800781 4.734375 -7.4375 C 5.191406 -7.082031 5.453125 -6.578125 5.515625 -5.921875 L 4.15625 -5.875 C 4.125 -6.164062 4 -6.382812 3.78125 -6.53125 C 3.5625 -6.6875 3.289062 -6.757812 2.96875 -6.75 C 2.613281 -6.738281 2.335938 -6.648438 2.140625 -6.484375 C 1.953125 -6.316406 1.863281 -6.097656 1.875 -5.828125 C 1.894531 -5.316406 2.210938 -4.976562 2.828125 -4.8125 L 3.703125 -4.609375 C 4.359375 -4.453125 4.859375 -4.175781 5.203125 -3.78125 C 5.546875 -3.394531 5.726562 -2.90625 5.75 -2.3125 C 5.757812 -1.976562 5.707031 -1.671875 5.59375 -1.390625 C 5.476562 -1.117188 5.3125 -0.882812 5.09375 -0.6875 C 4.882812 -0.488281 4.617188 -0.328125 4.296875 -0.203125 C 3.972656 -0.0859375 3.609375 -0.0195312 3.203125 0 Z M 3.203125 0 "/></g></g></g><g fill="#09090B" fill-opacity="1"><g transform="translate(54.447426, 11.618456)"><g><path d="M 0.921875 -0.03125 L 0.65625 -7.734375 L 5.390625 -7.90625 L 5.421875 -6.734375 L 2.03125 -6.609375 L 2.109375 -4.625 L 5.125 -4.734375 L 5.15625 -3.5625 L 2.140625 -3.453125 L 2.21875 -1.25 L 5.609375 -1.375 L 5.65625 -0.203125 Z M 0.921875 -0.03125 "/></g></g></g><g fill="#09090B" fill-opacity="1"><g transform="translate(60.863458, 11.394403)"><g><path d="M 1.90625 -2.328125 C 1.914062 -1.960938 2.035156 -1.675781 2.265625 -1.46875 C 2.503906 -1.257812 2.804688 -1.160156 3.171875 -1.171875 C 3.546875 -1.179688 3.835938 -1.300781 4.046875 -1.53125 C 4.265625 -1.757812 4.367188 -2.054688 4.359375 -2.421875 L 4.25 -5.609375 C 4.238281 -5.972656 4.113281 -6.253906 3.875 -6.453125 C 3.644531 -6.660156 3.34375 -6.757812 2.96875 -6.75 C 2.601562 -6.738281 2.3125 -6.617188 2.09375 -6.390625 C 1.882812 -6.171875 1.785156 -5.878906 1.796875 -5.515625 Z M 0.46875 -5.46875 C 0.457031 -5.832031 0.503906 -6.160156 0.609375 -6.453125 C 0.722656 -6.742188 0.882812 -7 1.09375 -7.21875 C 1.3125 -7.4375 1.578125 -7.601562 1.890625 -7.71875 C 2.210938 -7.84375 2.5625 -7.910156 2.9375 -7.921875 C 3.320312 -7.929688 3.671875 -7.890625 3.984375 -7.796875 C 4.304688 -7.703125 4.582031 -7.550781 4.8125 -7.34375 C 5.050781 -7.144531 5.234375 -6.90625 5.359375 -6.625 C 5.492188 -6.34375 5.566406 -6.019531 5.578125 -5.65625 L 5.6875 -2.46875 C 5.695312 -2.113281 5.644531 -1.785156 5.53125 -1.484375 C 5.425781 -1.191406 5.265625 -0.9375 5.046875 -0.71875 C 4.828125 -0.507812 4.5625 -0.335938 4.25 -0.203125 C 3.9375 -0.078125 3.585938 -0.0078125 3.203125 0 C 2.828125 0.0078125 2.476562 -0.03125 2.15625 -0.125 C 1.84375 -0.226562 1.566406 -0.378906 1.328125 -0.578125 C 1.097656 -0.773438 0.914062 -1.015625 0.78125 -1.296875 C 0.65625 -1.585938 0.585938 -1.914062 0.578125 -2.28125 Z M 0.46875 -5.46875 "/></g></g></g></g></g></svg>